<mxfile host="app.diagrams.net" modified="2024-04-11T03:14:54.226Z" agent="Mozilla/5.0 (Macintosh; Intel Mac OS X 10_15_7) AppleWebKit/537.36 (KHTML, like Gecko) Chrome/123.0.0.0 Safari/537.36" etag="w77Ygy3JuYGAnBQUWoh6" version="24.2.1" type="github">
  <diagram name="Page-1" id="e70_TyNyU2rnH7IJ8NNL">
    <mxGraphModel dx="2801" dy="1778" grid="1" gridSize="10" guides="1" tooltips="1" connect="1" arrows="1" fold="1" page="1" pageScale="1" pageWidth="827" pageHeight="1169" math="0" shadow="0">
      <root>
        <mxCell id="0" />
        <mxCell id="1" parent="0" />
        <mxCell id="YezFne8_wXPcGeLflV-3-8" value="" style="endArrow=block;endFill=1;html=1;edgeStyle=orthogonalEdgeStyle;align=left;verticalAlign=top;rounded=0;strokeWidth=2;fillColor=#d5e8d4;strokeColor=#82b366;" parent="1" edge="1">
          <mxGeometry x="-1" relative="1" as="geometry">
            <mxPoint x="-1036.5" y="100" as="sourcePoint" />
            <mxPoint x="106.5" y="100" as="targetPoint" />
          </mxGeometry>
        </mxCell>
        <mxCell id="YezFne8_wXPcGeLflV-3-21" value="合并" style="text;html=1;align=center;verticalAlign=middle;resizable=0;points=[];autosize=1;strokeColor=none;fillColor=none;" parent="1" vertex="1">
          <mxGeometry x="-712" y="940" width="50" height="30" as="geometry" />
        </mxCell>
        <mxCell id="YezFne8_wXPcGeLflV-3-27" value="" style="shape=mxgraph.cisco.people.pc_man;html=1;pointerEvents=1;dashed=0;fillColor=#036897;strokeColor=#ffffff;strokeWidth=2;verticalLabelPosition=bottom;verticalAlign=top;align=center;outlineConnect=0;" parent="1" vertex="1">
          <mxGeometry x="-730" y="987.5" width="40" height="55" as="geometry" />
        </mxCell>
        <mxCell id="YezFne8_wXPcGeLflV-3-34" value="" style="shape=curlyBracket;whiteSpace=wrap;html=1;rounded=1;labelPosition=left;verticalLabelPosition=middle;align=right;verticalAlign=middle;rotation=90;strokeColor=#999999;" parent="1" vertex="1">
          <mxGeometry x="-682" y="910" width="20" height="120" as="geometry" />
        </mxCell>
        <mxCell id="YezFne8_wXPcGeLflV-3-37" value="技术经理 &amp;amp; 测试 进行合并发版" style="text;html=1;align=center;verticalAlign=middle;resizable=0;points=[];autosize=1;strokeColor=none;fillColor=none;" parent="1" vertex="1">
          <mxGeometry x="-767" y="1050" width="190" height="30" as="geometry" />
        </mxCell>
        <mxCell id="YezFne8_wXPcGeLflV-3-47" value="" style="shape=mxgraph.cisco.people.sitting_woman;html=1;pointerEvents=1;dashed=0;fillColor=#036897;strokeColor=#ffffff;strokeWidth=2;verticalLabelPosition=bottom;verticalAlign=top;align=center;outlineConnect=0;" parent="1" vertex="1">
          <mxGeometry x="-637" y="990" width="30" height="50" as="geometry" />
        </mxCell>
        <mxCell id="YezFne8_wXPcGeLflV-3-49" value="" style="shape=curlyBracket;whiteSpace=wrap;html=1;rounded=1;labelPosition=left;verticalLabelPosition=middle;align=right;verticalAlign=middle;rotation=90;strokeColor=#999999;" parent="1" vertex="1">
          <mxGeometry x="-442" y="900" width="20" height="120" as="geometry" />
        </mxCell>
        <mxCell id="YezFne8_wXPcGeLflV-3-50" value="技术经理 &amp;amp; 测试 进行合并发版" style="text;html=1;align=center;verticalAlign=middle;resizable=0;points=[];autosize=1;strokeColor=none;fillColor=none;" parent="1" vertex="1">
          <mxGeometry x="-527" y="1040" width="190" height="30" as="geometry" />
        </mxCell>
        <mxCell id="YezFne8_wXPcGeLflV-3-51" value="" style="shape=mxgraph.cisco.people.sitting_woman;html=1;pointerEvents=1;dashed=0;fillColor=#036897;strokeColor=#ffffff;strokeWidth=2;verticalLabelPosition=bottom;verticalAlign=top;align=center;outlineConnect=0;" parent="1" vertex="1">
          <mxGeometry x="-397" y="980" width="30" height="50" as="geometry" />
        </mxCell>
        <mxCell id="YezFne8_wXPcGeLflV-3-60" value="" style="shape=mxgraph.cisco.people.pc_man;html=1;pointerEvents=1;dashed=0;fillColor=#036897;strokeColor=#ffffff;strokeWidth=2;verticalLabelPosition=bottom;verticalAlign=top;align=center;outlineConnect=0;" parent="1" vertex="1">
          <mxGeometry x="-490" y="980" width="40" height="55" as="geometry" />
        </mxCell>
        <mxCell id="YezFne8_wXPcGeLflV-3-62" value="汇总发版内容：&lt;br&gt;&lt;br&gt;&lt;ol&gt;&lt;li&gt;新增功能&lt;/li&gt;&lt;li&gt;修复问题&lt;/li&gt;&lt;li&gt;优化效果&lt;/li&gt;&lt;/ol&gt;" style="text;html=1;align=center;verticalAlign=middle;resizable=0;points=[];autosize=1;strokeColor=none;fillColor=none;" parent="1" vertex="1">
          <mxGeometry x="-900" y="970" width="110" height="110" as="geometry" />
        </mxCell>
        <mxCell id="3m85iYN54DuwGpqHedPC-1" value="发版" style="text;html=1;align=center;verticalAlign=middle;whiteSpace=wrap;rounded=0;" parent="1" vertex="1">
          <mxGeometry x="-780" y="870" width="60" height="30" as="geometry" />
        </mxCell>
        <mxCell id="3m85iYN54DuwGpqHedPC-2" value="发版" style="text;html=1;align=center;verticalAlign=middle;whiteSpace=wrap;rounded=0;" parent="1" vertex="1">
          <mxGeometry x="-457" y="870" width="60" height="30" as="geometry" />
        </mxCell>
        <mxCell id="3m85iYN54DuwGpqHedPC-3" value="&lt;font style=&quot;font-size: 18px;&quot;&gt;开发环境&lt;/font&gt;&lt;div&gt;&lt;span style=&quot;font-size: 18px;&quot;&gt;开发代码分支&lt;br&gt;&lt;/span&gt;&lt;div&gt;&lt;font style=&quot;font-size: 18px;&quot;&gt;（开发人员控制）&lt;/font&gt;&lt;/div&gt;&lt;/div&gt;" style="text;html=1;align=center;verticalAlign=middle;whiteSpace=wrap;rounded=0;" parent="1" vertex="1">
          <mxGeometry x="-1230" y="340" width="160" height="30" as="geometry" />
        </mxCell>
        <mxCell id="3m85iYN54DuwGpqHedPC-4" value="&lt;font style=&quot;font-size: 18px;&quot;&gt;测试环境&lt;/font&gt;&lt;div&gt;&lt;span style=&quot;font-size: 18px;&quot;&gt;发版代码分支&lt;br&gt;&lt;/span&gt;&lt;div&gt;&lt;font style=&quot;font-size: 18px;&quot;&gt;（测试人员控制）&lt;/font&gt;&lt;/div&gt;&lt;/div&gt;" style="text;html=1;align=center;verticalAlign=middle;whiteSpace=wrap;rounded=0;" parent="1" vertex="1">
          <mxGeometry x="-1240" y="550" width="170" height="30" as="geometry" />
        </mxCell>
        <mxCell id="-c3DM-_ndwGycEpeY3p6-2" value="开发人员" style="shape=mxgraph.cisco.people.androgenous_person;html=1;pointerEvents=1;dashed=0;fillColor=#6EC8F9;strokeColor=#ffffff;strokeWidth=2;verticalLabelPosition=bottom;verticalAlign=top;align=center;outlineConnect=0;" vertex="1" parent="1">
          <mxGeometry x="-996.5" y="270" width="40" height="46" as="geometry" />
        </mxCell>
        <mxCell id="-c3DM-_ndwGycEpeY3p6-5" value="&lt;span style=&quot;font-size: 18px;&quot;&gt;项目进度&lt;/span&gt;&lt;br&gt;&lt;div&gt;&lt;font style=&quot;font-size: 18px;&quot;&gt;（项目经理控制）&lt;/font&gt;&lt;/div&gt;" style="text;html=1;align=center;verticalAlign=middle;whiteSpace=wrap;rounded=0;" vertex="1" parent="1">
          <mxGeometry x="-1220" y="90" width="160" height="30" as="geometry" />
        </mxCell>
        <mxCell id="-c3DM-_ndwGycEpeY3p6-6" value="项目经理/开发经理" style="shape=mxgraph.cisco.people.pc_man;html=1;pointerEvents=1;dashed=0;fillColor=#036897;strokeColor=#ffffff;strokeWidth=2;verticalLabelPosition=bottom;verticalAlign=top;align=center;outlineConnect=0;" vertex="1" parent="1">
          <mxGeometry x="-1025" y="-60" width="40" height="55" as="geometry" />
        </mxCell>
        <mxCell id="-c3DM-_ndwGycEpeY3p6-9" value="" style="endArrow=classic;html=1;rounded=0;" edge="1" parent="1" source="-c3DM-_ndwGycEpeY3p6-15">
          <mxGeometry width="50" height="50" relative="1" as="geometry">
            <mxPoint x="-930" as="sourcePoint" />
            <mxPoint x="-950" y="100" as="targetPoint" />
          </mxGeometry>
        </mxCell>
        <mxCell id="-c3DM-_ndwGycEpeY3p6-13" value="" style="endArrow=classic;html=1;rounded=0;" edge="1" parent="1" target="-c3DM-_ndwGycEpeY3p6-15">
          <mxGeometry width="50" height="50" relative="1" as="geometry">
            <mxPoint x="-1001.2826086956525" y="5" as="sourcePoint" />
            <mxPoint x="-950" y="100" as="targetPoint" />
          </mxGeometry>
        </mxCell>
        <mxCell id="-c3DM-_ndwGycEpeY3p6-34" value="" style="edgeStyle=orthogonalEdgeStyle;rounded=0;orthogonalLoop=1;jettySize=auto;html=1;" edge="1" parent="1" source="-c3DM-_ndwGycEpeY3p6-15" target="-c3DM-_ndwGycEpeY3p6-2">
          <mxGeometry relative="1" as="geometry">
            <mxPoint x="-976.5" y="185" as="targetPoint" />
          </mxGeometry>
        </mxCell>
        <mxCell id="-c3DM-_ndwGycEpeY3p6-15" value="&lt;span style=&quot;font-size: 11px; text-wrap: nowrap; background-color: rgb(255, 255, 255);&quot;&gt;创建JIRA任务&lt;/span&gt;" style="rounded=1;whiteSpace=wrap;html=1;" vertex="1" parent="1">
          <mxGeometry x="-1013" y="90" width="73" height="30" as="geometry" />
        </mxCell>
        <mxCell id="-c3DM-_ndwGycEpeY3p6-22" value="" style="endArrow=classic;html=1;rounded=0;strokeWidth=2;fillColor=#dae8fc;strokeColor=#6c8ebf;exitX=1;exitY=0.5;exitDx=0;exitDy=0;" edge="1" parent="1" source="3m85iYN54DuwGpqHedPC-3" target="-c3DM-_ndwGycEpeY3p6-19">
          <mxGeometry width="50" height="50" relative="1" as="geometry">
            <mxPoint x="-1030" y="360" as="sourcePoint" />
            <mxPoint x="-260" y="570" as="targetPoint" />
            <Array as="points" />
          </mxGeometry>
        </mxCell>
        <mxCell id="-c3DM-_ndwGycEpeY3p6-19" value="&lt;span style=&quot;font-size: 11px; text-wrap: nowrap; background-color: rgb(255, 255, 255);&quot;&gt;认领JIRA任务&lt;/span&gt;" style="rounded=1;whiteSpace=wrap;html=1;" vertex="1" parent="1">
          <mxGeometry x="-1013" y="340" width="75" height="30" as="geometry" />
        </mxCell>
        <mxCell id="-c3DM-_ndwGycEpeY3p6-24" value="" style="endArrow=classic;html=1;rounded=0;strokeWidth=2;fillColor=#dae8fc;strokeColor=#6c8ebf;" edge="1" parent="1" source="-c3DM-_ndwGycEpeY3p6-19" target="-c3DM-_ndwGycEpeY3p6-23">
          <mxGeometry width="50" height="50" relative="1" as="geometry">
            <mxPoint x="-950" y="355" as="sourcePoint" />
            <mxPoint x="-260" y="570" as="targetPoint" />
            <Array as="points" />
          </mxGeometry>
        </mxCell>
        <mxCell id="-c3DM-_ndwGycEpeY3p6-23" value="&lt;span style=&quot;font-size: 11px; text-wrap: nowrap; background-color: rgb(255, 255, 255);&quot;&gt;提交代码...&lt;/span&gt;" style="rounded=1;whiteSpace=wrap;html=1;" vertex="1" parent="1">
          <mxGeometry x="-880" y="340" width="75" height="30" as="geometry" />
        </mxCell>
        <mxCell id="-c3DM-_ndwGycEpeY3p6-28" value="&lt;span style=&quot;font-size: 11px; text-wrap: nowrap; background-color: rgb(255, 255, 255);&quot;&gt;自测完成&lt;/span&gt;" style="rounded=1;whiteSpace=wrap;html=1;" vertex="1" parent="1">
          <mxGeometry x="-760" y="340" width="75" height="30" as="geometry" />
        </mxCell>
        <mxCell id="-c3DM-_ndwGycEpeY3p6-29" value="开发人员" style="shape=mxgraph.cisco.people.androgenous_person;html=1;pointerEvents=1;dashed=0;fillColor=#6EC8F9;strokeColor=#ffffff;strokeWidth=2;verticalLabelPosition=bottom;verticalAlign=top;align=center;outlineConnect=0;" vertex="1" parent="1">
          <mxGeometry x="-867" y="270" width="40" height="46" as="geometry" />
        </mxCell>
        <mxCell id="-c3DM-_ndwGycEpeY3p6-32" value="&lt;span style=&quot;font-size: 11px; text-wrap: nowrap; background-color: rgb(255, 255, 255);&quot;&gt;JIRA点击【已完成】&lt;/span&gt;" style="rounded=1;whiteSpace=wrap;html=1;" vertex="1" parent="1">
          <mxGeometry x="-640" y="340" width="120" height="30" as="geometry" />
        </mxCell>
        <mxCell id="-c3DM-_ndwGycEpeY3p6-36" value="" style="endArrow=block;endFill=1;html=1;edgeStyle=orthogonalEdgeStyle;align=left;verticalAlign=top;rounded=0;strokeWidth=2;fillColor=#d5e8d4;strokeColor=#82b366;exitX=1;exitY=0.75;exitDx=0;exitDy=0;" edge="1" parent="1" source="3m85iYN54DuwGpqHedPC-4" target="-c3DM-_ndwGycEpeY3p6-35">
          <mxGeometry x="-1" relative="1" as="geometry">
            <mxPoint x="-1050" y="580" as="sourcePoint" />
            <mxPoint x="93" y="580" as="targetPoint" />
          </mxGeometry>
        </mxCell>
        <mxCell id="-c3DM-_ndwGycEpeY3p6-35" value="&lt;span style=&quot;font-size: 11px; text-wrap: nowrap; background-color: rgb(255, 255, 255);&quot;&gt;认领JIRA任务&lt;/span&gt;" style="rounded=1;whiteSpace=wrap;html=1;" vertex="1" parent="1">
          <mxGeometry x="-1020" y="560" width="75" height="30" as="geometry" />
        </mxCell>
        <mxCell id="-c3DM-_ndwGycEpeY3p6-38" value="&lt;span style=&quot;font-size: 11px; text-wrap: nowrap; background-color: rgb(255, 255, 255);&quot;&gt;测试用例&lt;/span&gt;" style="rounded=1;whiteSpace=wrap;html=1;" vertex="1" parent="1">
          <mxGeometry x="-884.5" y="560" width="75" height="30" as="geometry" />
        </mxCell>
        <mxCell id="-c3DM-_ndwGycEpeY3p6-39" value="&lt;span style=&quot;font-size: 11px; text-wrap: nowrap; background-color: rgb(255, 255, 255);&quot;&gt;查看开发提测JIRA LIST&lt;/span&gt;" style="rounded=1;whiteSpace=wrap;html=1;" vertex="1" parent="1">
          <mxGeometry x="-655" y="560" width="135" height="30" as="geometry" />
        </mxCell>
        <mxCell id="-c3DM-_ndwGycEpeY3p6-42" value="" style="edgeStyle=orthogonalEdgeStyle;rounded=0;orthogonalLoop=1;jettySize=auto;html=1;entryX=0.56;entryY=-0.12;entryDx=0;entryDy=0;entryPerimeter=0;" edge="1" parent="1" target="-c3DM-_ndwGycEpeY3p6-39">
          <mxGeometry relative="1" as="geometry">
            <mxPoint x="-580.4" y="370" as="sourcePoint" />
            <mxPoint x="-580.4" y="520" as="targetPoint" />
          </mxGeometry>
        </mxCell>
        <mxCell id="-c3DM-_ndwGycEpeY3p6-43" value="主动/系统自动&lt;div&gt;通知测试人员&lt;/div&gt;" style="edgeLabel;html=1;align=center;verticalAlign=middle;resizable=0;points=[];" vertex="1" connectable="0" parent="-c3DM-_ndwGycEpeY3p6-42">
          <mxGeometry x="-0.1779" y="3" relative="1" as="geometry">
            <mxPoint as="offset" />
          </mxGeometry>
        </mxCell>
      </root>
    </mxGraphModel>
  </diagram>
</mxfile>
